<svg xmlns="http://www.w3.org/2000/svg" viewBox="0 0 27.88 8.16"><defs><style>.cls-1{fill:#fff;}</style></defs><title>flecha</title><g id="Capa_2" data-name="Capa 2"><g id="Capa_1-2" data-name="Capa 1"><path class="cls-1" d="M22,.11a.27.27,0,0,0,.07.37l4.57,3.24H0v.71H26.66L22.09,7.67A.27.27,0,0,0,22,8a.26.26,0,0,0,.36.07l5.19-3.68h.05v0l.15-.1s0,0,0,0,0,0,0,0h0a.27.27,0,0,0,.05-.14.24.24,0,0,0-.05-.14h0a.12.12,0,0,0,0-.05,0,0,0,0,1,0,0l-.15-.11v0h-.05L22.38.05A.25.25,0,0,0,22,.11Z"/></g></g></svg>