<svg xmlns="http://www.w3.org/2000/svg" viewBox="0 0 27.4 27.41"><defs><style>.cls-1{fill:#cf4c2e;}</style></defs><title>instagram-color</title><g id="Capa_2" data-name="Capa 2"><g id="Capa_1-2" data-name="Capa 1"><path class="cls-1" d="M13.71,6.67a7,7,0,1,0,7,7,7,7,0,0,0-7-7Zm0,11.59a4.57,4.57,0,1,1,4.56-4.56A4.56,4.56,0,0,1,13.71,18.26Z"/><path class="cls-1" d="M19.35.09C16.83,0,10.59,0,8.06.09A8.21,8.21,0,0,0,2.31,2.3C-.32,4.94,0,8.49,0,13.7s-.29,8.8,2.3,11.39,6.25,2.3,11.4,2.3,7.1,0,9-.72c2.53-1,4.45-3.25,4.64-7.33.12-2.52.11-8.76,0-11.29-.23-4.81-2.81-7.73-8-8Zm4,23.26c-1.72,1.73-4.12,1.57-9.67,1.57C8,24.92,5.68,25,4,23.33c-1.92-1.91-1.57-5-1.57-9.65,0-6.31-.65-10.85,5.68-11.18,1.46,0,1.89-.07,5.55-.07l.05,0c6.08,0,10.86-.64,11.15,5.69.06,1.45.08,1.88.08,5.54,0,5.64.1,7.94-1.6,9.65Z"/><circle class="cls-1" cx="21.02" cy="6.39" r="1.64"/></g></g></svg>