<svg xmlns="http://www.w3.org/2000/svg" viewBox="0 0 22.27 27.4"><defs><style>.cls-1{fill:#fff;}</style></defs><title>pinterest</title><g id="Capa_2" data-name="Capa 2"><g id="Capa_1-2" data-name="Capa 1"><path class="cls-1" d="M11.51,0C4,0,0,4.81,0,10.06c0,2.44,1.36,5.47,3.54,6.43.62.28.54-.06,1.07-2.1a.49.49,0,0,0-.12-.48c-3.11-3.6-.6-11,6.57-11,10.38,0,8.44,14.37,1.81,14.37a2.45,2.45,0,0,1-2.58-3c.48-2,1.44-4.1,1.44-5.53,0-3.59-5.35-3.06-5.35,1.7a5.81,5.81,0,0,0,.52,2.47s-1.73,7-2.05,8.26A18.58,18.58,0,0,0,5,27.24a.18.18,0,0,0,.33.08A21.62,21.62,0,0,0,8.15,22C8.36,21.2,9.23,18,9.23,18a4.74,4.74,0,0,0,4,1.9c5.25,0,9-4.61,9-10.34C22.25,4.11,17.55,0,11.51,0Z"/></g></g></svg>