<svg xmlns="http://www.w3.org/2000/svg" viewBox="0 0 82.81 32.03"><defs><style>.cls-1{fill:#fff;}</style></defs><title>TheRebisMagazineLogo</title><g id="Capa_2" data-name="Capa 2"><g id="Capa_1-2" data-name="Capa 1"><path class="cls-1" d="M0,4.72l.36,0H4.17a2.24,2.24,0,0,0,.36,0V6.14H4.3A1.27,1.27,0,0,0,4,5.27,1.17,1.17,0,0,0,3.18,5H2.8a.11.11,0,0,0-.11.1V9.73c0,.13.06.2.18.2l.48,0v.26H1.18V9.91l.49,0a.17.17,0,0,0,.13-.07.29.29,0,0,0,0-.16V5.1c0-.07,0-.11-.1-.11H1.36a1.17,1.17,0,0,0-.86.28,1.22,1.22,0,0,0-.26.87H0Z"/><path class="cls-1" d="M9.25,9.93v.24H7.48V9.93l.42,0A.15.15,0,0,0,8,9.78V7.72a3.84,3.84,0,0,0,0-.67.75.75,0,0,0-.17-.37.56.56,0,0,0-.4-.12A1,1,0,0,0,6.57,7a2.14,2.14,0,0,0-.35,1.18v1.6c0,.12,0,.17.12.17l.42,0v.24H5V9.93l.33,0a.15.15,0,0,0,.12-.17V3.94c0-.13,0-.19-.12-.19L5,3.77V3.54H6.22V7.17a1.55,1.55,0,0,1,.55-.66,1.38,1.38,0,0,1,.81-.24,1.24,1.24,0,0,1,.93.3,1.41,1.41,0,0,1,.29,1V9.78c0,.12,0,.17.12.17Z"/><path class="cls-1" d="M12.74,6.72A1.88,1.88,0,0,1,13.2,8v.27H10.58a2.3,2.3,0,0,0,.29,1.26.94.94,0,0,0,.85.45,1.27,1.27,0,0,0,.77-.22A1.4,1.4,0,0,0,13,9.17l.21.16a1.39,1.39,0,0,1-.61.68,1.85,1.85,0,0,1-1,.25c-1.23,0-1.85-.66-1.85-2a2.16,2.16,0,0,1,.47-1.5,1.77,1.77,0,0,1,1.36-.5A1.56,1.56,0,0,1,12.74,6.72Zm-1.91.21A2.17,2.17,0,0,0,10.59,8h1.65A.17.17,0,0,0,12.38,8a.49.49,0,0,0,0-.24,1.67,1.67,0,0,0-.19-.91.72.72,0,0,0-.65-.3A.8.8,0,0,0,10.83,6.93Z"/><path class="cls-1" d="M15.33,12.44l.7,0q.33,0,.33-.39V3.23a.4.4,0,0,0-.1-.28A.33.33,0,0,0,16,2.86l-.64,0V2.36h4A4.76,4.76,0,0,1,22.18,3a2.51,2.51,0,0,1,.89,2.15,2.29,2.29,0,0,1-.59,1.57,3.07,3.07,0,0,1-1.58.93A2,2,0,0,1,22,8.06,2.78,2.78,0,0,1,23,9.14a3.58,3.58,0,0,1,.37,1.65,4.55,4.55,0,0,0,.13,1.08c.09.37.22.56.38.59a1,1,0,0,0,.25,0,.69.69,0,0,0,.34-.07V13H22a3,3,0,0,1-.24-1.17c0-.3,0-.53,0-.67v-.59a2.34,2.34,0,0,0-.86-2,3.33,3.33,0,0,0-2.1-.66H18v4.2q0,.39.36.39l.87,0V13H15.33Zm4.33-5a1.54,1.54,0,0,0,1.28-.59,2.55,2.55,0,0,0,.46-1.63,2.6,2.6,0,0,0-.5-1.77,2,2,0,0,0-1.58-.55H18.23c-.15,0-.22.06-.22.17V7.4Z"/><path class="cls-1" d="M31.2,6.22a3.49,3.49,0,0,1,.9,2.46v.51H27a4.6,4.6,0,0,0,.56,2.48,1.93,1.93,0,0,0,1.68.88,2.47,2.47,0,0,0,1.5-.45,2.64,2.64,0,0,0,.89-1.1l.41.3a2.74,2.74,0,0,1-1.2,1.34,3.58,3.58,0,0,1-1.85.49q-3.6,0-3.6-3.88a4.23,4.23,0,0,1,.9-2.93,3.42,3.42,0,0,1,2.66-1A3,3,0,0,1,31.2,6.22Zm-3.72.4A4.15,4.15,0,0,0,27,8.75h3.23a.28.28,0,0,0,.26-.13.81.81,0,0,0,.09-.46,3.23,3.23,0,0,0-.38-1.78,1.42,1.42,0,0,0-1.27-.58A1.56,1.56,0,0,0,27.48,6.62Z"/><path class="cls-1" d="M33.09,0h2.42V6.89a2.33,2.33,0,0,1,2.32-1.57q3.08,0,3.07,3.93a4.4,4.4,0,0,1-.83,2.9,3.13,3.13,0,0,1-2.54,1,2.43,2.43,0,0,1-1.31-.28,3.45,3.45,0,0,1-.86-.82c0-.11-.15-.16-.31-.16s-.29.11-.38.32a2.47,2.47,0,0,0-.12.85H34V.76c0-.23-.07-.35-.23-.35l-.64,0ZM36,11.87a1.64,1.64,0,0,0,1.53.78,1.58,1.58,0,0,0,1.06-.31,1.83,1.83,0,0,0,.54-1,10.58,10.58,0,0,0,.16-2.05,12.18,12.18,0,0,0-.14-2.11,1.81,1.81,0,0,0-.48-1,1.56,1.56,0,0,0-1-.31,1.74,1.74,0,0,0-1.55.85,4.19,4.19,0,0,0-.55,2.29v.75A4.39,4.39,0,0,0,36,11.87Z"/><path class="cls-1" d="M44.29,12.19c0,.23.08.34.23.34l.64,0V13H41.88v-.46l.65,0c.16,0,.24-.11.24-.34V6.28c0-.2-.08-.32-.22-.35L41.9,6V5.5h2.39ZM44.11,1.77a.78.78,0,0,1,.27.61.77.77,0,0,1-.27.63,1.22,1.22,0,0,1-1.4,0,.77.77,0,0,1-.26-.63.77.77,0,0,1,.26-.61,1,1,0,0,1,.69-.23A1.1,1.1,0,0,1,44.11,1.77Z"/><path class="cls-1" d="M46.65,10.43l.46,0a2,2,0,0,0,.36,1.17,2.37,2.37,0,0,0,.94.8,2.85,2.85,0,0,0,1.27.28,1.55,1.55,0,0,0,1.1-.36,1.28,1.28,0,0,0,.39-1,1.16,1.16,0,0,0-.28-.81,2,2,0,0,0-1-.52l-1.7-.48a2.19,2.19,0,0,1-1.12-.72,1.92,1.92,0,0,1-.41-1.25,2,2,0,0,1,.73-1.58,3,3,0,0,1,2-.62,3.06,3.06,0,0,1,.63.06,6.07,6.07,0,0,1,.68.17,3.15,3.15,0,0,0,.82.16A.87.87,0,0,0,52,5.57l-.1,2h-.39A1.7,1.7,0,0,0,51,6.34a2.09,2.09,0,0,0-1.52-.54,1.45,1.45,0,0,0-1,.36,1.16,1.16,0,0,0-.39.9c0,.58.37,1,1.1,1.17l1.71.48a2.35,2.35,0,0,1,1.28.74,2.08,2.08,0,0,1,.37,1.27,2.1,2.1,0,0,1-.82,1.78,3.37,3.37,0,0,1-2.13.63,4.2,4.2,0,0,1-.77-.08c-.27-.05-.67-.16-1.21-.31a1.79,1.79,0,0,0-.48-.07,1,1,0,0,0-.52.11Z"/><path class="cls-1" d="M28.78,27.17v.52h-3.9v-.52l.87,0c.23,0,.35-.13.35-.39V18.48l-4.22,9.38h-.43l-4.56-9.53v8.49c0,.26.12.39.34.39l.87,0v.52H15.24v-.52l.7,0c.23,0,.35-.13.35-.39V17.7c0-.09-.06-.12-.18-.11l-.74,0v-.54H18.1l4.14,8.59,3.88-8.59h2.57v.54l-.6,0h0a.3.3,0,0,0-.23.11.41.41,0,0,0-.08.24v8.88c0,.26.11.39.35.39Z"/><path class="cls-1" d="M37.3,27.22v.47H34.78c0-.09,0-.2,0-.33a2.48,2.48,0,0,0,0-.33l0-.69a2.53,2.53,0,0,1-1,1.1,3,3,0,0,1-1.46.33,2.47,2.47,0,0,1-1.69-.5,1.88,1.88,0,0,1-.58-1.5,2.15,2.15,0,0,1,1.14-2,7.54,7.54,0,0,1,3.6-.65v-1a1.55,1.55,0,0,0-.39-1.19,1.83,1.83,0,0,0-1.26-.35c-.9,0-1.35.24-1.35.74a.78.78,0,0,0,.08.33.93.93,0,0,1,.08.34.54.54,0,0,1-.2.46.77.77,0,0,1-.49.15.74.74,0,0,1-.58-.23.89.89,0,0,1-.21-.61,1.37,1.37,0,0,1,.79-1.2,4,4,0,0,1,2.09-.46c2,0,3,.83,3,2.5v4.36c0,.23.08.34.23.34Zm-3-.73a2.74,2.74,0,0,0,.61-1.68V23.59a4.41,4.41,0,0,0-2.4.49,1.74,1.74,0,0,0-.73,1.55,1.78,1.78,0,0,0,.31,1.12,1.06,1.06,0,0,0,.88.39A1.68,1.68,0,0,0,34.28,26.49Z"/><path class="cls-1" d="M44,20a2,2,0,0,0-.61.48,2.34,2.34,0,0,1,1.32,2.29,2.44,2.44,0,0,1-.84,1.91,3.19,3.19,0,0,1-2.2.73,3.68,3.68,0,0,1-1.38-.26c-.4.24-.61.5-.61.78,0,.43.34.65,1,.65h2.36a3,3,0,0,1,2,.57,2.39,2.39,0,0,1,.66,1.9,2.6,2.6,0,0,1-.52,1.6,3.31,3.31,0,0,1-1.48,1.06,6.08,6.08,0,0,1-2.22.37,4.15,4.15,0,0,1-2.41-.6,2,2,0,0,1-.84-1.76,1.83,1.83,0,0,1,.4-1.2,3.39,3.39,0,0,1,1.2-.87c-.88-.17-1.31-.56-1.31-1.17a.93.93,0,0,1,.18-.58,4.49,4.49,0,0,1,.65-.61l.48-.39a2.59,2.59,0,0,1-.31-4.06,3.17,3.17,0,0,1,2.17-.73,4.07,4.07,0,0,1,1.35.21,5,5,0,0,1,1.09-1.07,1.94,1.94,0,0,1,1-.47.74.74,0,0,1,.63.23.84.84,0,0,1,.19.55.7.7,0,0,1-.16.44.49.49,0,0,1-.41.21.67.67,0,0,1-.32-.06,1,1,0,0,1-.22-.2.31.31,0,0,0-.26-.15A1.56,1.56,0,0,0,44,20Zm-3,7.74a1.71,1.71,0,0,0-1,.28,2,2,0,0,0-.7.74,1.87,1.87,0,0,0-.26.93,1.79,1.79,0,0,0,.6,1.4,2.57,2.57,0,0,0,1.76.53,3.42,3.42,0,0,0,2.27-.67,2.22,2.22,0,0,0,.8-1.78A1.34,1.34,0,0,0,44.1,28a2,2,0,0,0-1.32-.35Zm1.82-3.24a3.61,3.61,0,0,0,.31-1.73A3.33,3.33,0,0,0,42.82,21a1.58,1.58,0,0,0-2.27,0,3.41,3.41,0,0,0-.3,1.71,5.87,5.87,0,0,0,.12,1.35,1.12,1.12,0,0,0,.43.68,1.57,1.57,0,0,0,.88.2A1.26,1.26,0,0,0,42.83,24.45Z"/><path class="cls-1" d="M53.45,27.22v.47H50.93c0-.09,0-.2,0-.33A2.48,2.48,0,0,0,51,27l0-.69a2.51,2.51,0,0,1-1,1.1,3.06,3.06,0,0,1-1.46.33,2.5,2.5,0,0,1-1.7-.5,1.91,1.91,0,0,1-.57-1.5,2.15,2.15,0,0,1,1.14-2A7.47,7.47,0,0,1,51,23.11v-1a1.55,1.55,0,0,0-.39-1.19,1.83,1.83,0,0,0-1.26-.35c-.9,0-1.35.24-1.35.74a1,1,0,0,0,.08.33.76.76,0,0,1,.08.34.54.54,0,0,1-.19.46.8.8,0,0,1-.5.15.72.72,0,0,1-.57-.23.89.89,0,0,1-.21-.61,1.37,1.37,0,0,1,.78-1.2,4.09,4.09,0,0,1,2.1-.46c2,0,3,.83,3,2.5v4.36c0,.23.08.34.23.34Zm-3-.73a2.67,2.67,0,0,0,.6-1.68V23.59a4.37,4.37,0,0,0-2.39.49,1.71,1.71,0,0,0-.73,1.55,1.72,1.72,0,0,0,.31,1.12,1.06,1.06,0,0,0,.88.39A1.7,1.7,0,0,0,50.43,26.49Z"/><path class="cls-1" d="M60.86,25.22v2.47h-6.1a1.94,1.94,0,0,1-.35,0v-.35l4.41-6.69H57.08a1.91,1.91,0,0,0-1.42.53A2.54,2.54,0,0,0,55,22.72H54.6l.16-2.52.52,0h5.41v.34l-4.37,6.67H58.2a2.54,2.54,0,0,0,1.7-.5,1.88,1.88,0,0,0,.59-1.52Z"/><path class="cls-1" d="M64.66,26.92c0,.23.08.34.23.34l.64,0v.47H62.25v-.47l.66,0c.15,0,.23-.11.23-.34V21c0-.2-.08-.32-.22-.35l-.65,0v-.46h2.39Zm-.18-10.41a.74.74,0,0,1,.27.6.77.77,0,0,1-.27.63,1.22,1.22,0,0,1-1.4,0,.8.8,0,0,1-.26-.63.76.76,0,0,1,.26-.6,1,1,0,0,1,.69-.23A1,1,0,0,1,64.48,16.51Z"/><path class="cls-1" d="M75.11,27.22v.47H71.65v-.47l.82,0a.31.31,0,0,0,.23-.34v-4a8.71,8.71,0,0,0-.08-1.32,1.24,1.24,0,0,0-.33-.71,1.11,1.11,0,0,0-.78-.25,2,2,0,0,0-1.64.86,4.09,4.09,0,0,0-.68,2.32v3.12c0,.23.07.34.23.34l.81,0v.47H66.77v-.47l.66,0a.31.31,0,0,0,.23-.34V21c0-.2-.08-.32-.23-.35l-.66,0v-.46h2.5a2,2,0,0,0-.08.62v1a2.92,2.92,0,0,1,1.06-1.3,2.72,2.72,0,0,1,1.6-.47,2.4,2.4,0,0,1,1.82.59,2.78,2.78,0,0,1,.56,1.93v4.34c0,.23.07.34.23.34Z"/><path class="cls-1" d="M81.92,21a3.53,3.53,0,0,1,.89,2.46v.51H77.7a4.58,4.58,0,0,0,.56,2.48,1.91,1.91,0,0,0,1.68.88,2.53,2.53,0,0,0,2.39-1.55l.41.31a2.75,2.75,0,0,1-1.19,1.34,3.74,3.74,0,0,1-1.86.48q-3.6,0-3.6-3.88a4.23,4.23,0,0,1,.9-2.93,3.43,3.43,0,0,1,2.66-1A3,3,0,0,1,81.92,21Zm-3.73.4a4.31,4.31,0,0,0-.47,2.13H81a.32.32,0,0,0,.27-.12.86.86,0,0,0,.09-.46,3.26,3.26,0,0,0-.39-1.79,1.4,1.4,0,0,0-1.27-.57A1.57,1.57,0,0,0,78.19,21.35Z"/></g></g></svg>